<svg width="36" height="36" viewBox="0 0 36 36" fill="none" xmlns="http://www.w3.org/2000/svg">
<g id="Export">
<path id="Rectangle 2" d="M31.5 18H26.5704C26.0464 18 25.7844 18 25.5633 18.1183C25.3422 18.2367 25.1969 18.4546 24.9063 18.8906L23.0937 21.6094C22.8031 22.0454 22.6578 22.2633 22.4367 22.3817C22.2156 22.5 21.9536 22.5 21.4296 22.5H14.5704C14.0464 22.5 13.7844 22.5 13.5633 22.3817C13.3422 22.2633 13.1969 22.0454 12.9063 21.6094L11.0937 18.8906C10.8031 18.4546 10.6578 18.2367 10.4367 18.1183C10.2156 18 9.9536 18 9.42963 18H4.5" stroke="#A57562" stroke-width="2"/>
<path id="Vector 10" d="M12.75 12L18 7.5M18 7.5L23.25 12M18 7.5L18 18" stroke="#A57562" stroke-width="2"/>
<path id="Rectangle 1" d="M7.5 13.5L4.79289 16.2071C4.60536 16.3946 4.5 16.649 4.5 16.9142V26.5C4.5 27.6046 5.39543 28.5 6.5 28.5H29.5C30.6046 28.5 31.5 27.6046 31.5 26.5V16.9142C31.5 16.649 31.3946 16.3946 31.2071 16.2071L28.5 13.5" stroke="#A57562" stroke-width="2" stroke-linecap="round"/>
</g>
</svg>
