<svg width="36" height="36" viewBox="0 0 36 36" fill="none" xmlns="http://www.w3.org/2000/svg">
<path d="M14.1581 29.7806L14.4743 30.7293H14.4743L14.1581 29.7806ZM22.1581 27.114L21.8419 26.1653L21.8419 26.1653L22.1581 27.114ZM29.7071 10.7929L30.4142 11.5L29.7071 10.7929ZM22.7929 17.7071L22.0858 17L22.7929 17.7071ZM6.29289 10.7929L5.58579 11.5L6.29289 10.7929ZM7 7H29V5H7V7ZM7 10.0858V7H5V10.0858H7ZM13.9142 17L7 10.0858L5.58579 11.5L12.5 18.4142L13.9142 17ZM12.5 18.4142V29.3063H14.5V18.4142H12.5ZM12.5 29.3063C12.5 30.3301 13.503 31.0531 14.4743 30.7293L13.8419 28.832C14.1656 28.724 14.5 28.965 14.5 29.3063H12.5ZM14.4743 30.7293L22.4743 28.0627L21.8419 26.1653L13.8419 28.832L14.4743 30.7293ZM22.4743 28.0627C23.0868 27.8585 23.5 27.2853 23.5 26.6396H21.5C21.5 26.4244 21.6377 26.2333 21.8419 26.1653L22.4743 28.0627ZM23.5 26.6396V18.4142H21.5V26.6396H23.5ZM29 10.0858L22.0858 17L23.5 18.4142L30.4142 11.5L29 10.0858ZM29 7V10.0858H31V7H29ZM30.4142 11.5C30.7893 11.1249 31 10.6162 31 10.0858H29L30.4142 11.5ZM23.5 18.4142V18.4142L22.0858 17C21.7107 17.3751 21.5 17.8838 21.5 18.4142H23.5ZM12.5 18.4142H14.5C14.5 17.8838 14.2893 17.3751 13.9142 17L12.5 18.4142ZM5 10.0858C5 10.6162 5.21071 11.1249 5.58579 11.5L7 10.0858L7 10.0858H5ZM29 7H31C31 5.89543 30.1046 5 29 5V7ZM7 5C5.89543 5 5 5.89543 5 7H7V7V5Z" fill="#A57562"/>
</svg>
