<svg width="25" height="24" viewBox="0 0 25 24" fill="none" xmlns="http://www.w3.org/2000/svg">
<path d="M1 9C1 7.11438 1 6.17157 1.58579 5.58579C2.17157 5 3.11438 5 5 5H5.34315C6.16065 5 6.5694 5 6.93694 5.15224C7.30448 5.30448 7.59351 5.59351 8.17157 6.17157L8.82843 6.82843C9.40649 7.40649 9.69552 7.69552 10.0631 7.84776C10.4306 8 10.8394 8 11.6569 8H13C14.8856 8 15.8284 8 16.4142 8.58579C17 9.17157 17 10.1144 17 12V15C17 16.8856 17 17.8284 16.4142 18.4142C15.8284 19 14.8856 19 13 19H5C3.11438 19 2.17157 19 1.58579 18.4142C1 17.8284 1 16.8856 1 15V9Z" stroke="#A3A5AA" stroke-width="2"/>
</svg>
