<svg width="48" height="48" viewBox="0 0 48 48" fill="none" xmlns="http://www.w3.org/2000/svg">
<path d="M6 24C6 14.0589 14.0589 6 24 6C33.9411 6 42 14.0589 42 24C42 33.9411 33.9411 42 24 42C14.0589 42 6 33.9411 6 24Z" fill="#5F6166" fill-opacity="0.75"/>
<circle cx="24" cy="20" r="8" fill="#A57562"/>
<path fill-rule="evenodd" clip-rule="evenodd" d="M36.539 36.6565C36.5956 36.7538 36.5779 36.8768 36.4969 36.9549C33.2594 40.0786 28.8541 42 24.0001 42C19.1461 42 14.7409 40.0787 11.5034 36.9551C11.4224 36.8769 11.4047 36.7539 11.4613 36.6566C13.7544 32.7108 18.508 30 24.0002 30C29.4924 30 34.2459 32.7108 36.539 36.6565Z" fill="#A57562"/>
</svg>
